{"glyphs":{"0":{"ha":1099,"x_min":0,"x_max":1097,"o":"m 1097 493 q 1084 446 1097 467 q 1050 413 1071 425 q 986 249 1032 325 q 874 119 940 174 q 725 33 808 64 q 549 1 642 1 q 372 33 456 1 q 223 119 289 64 q 111 249 157 174 q 47 413 65 325 q 13 446 26 425 q 0 493 0 467 q 43 707 0 607 q 160 881 86 807 q 335 999 235 956 q 549 1042 435 1042 q 763 999 663 1042 q 937 881 863 956 q 1054 707 1011 807 q 1097 493 1097 607 m 549 94 q 689 119 622 94 q 809 185 756 143 q 900 286 863 228 q 954 414 938 344 q 923 447 935 426 q 911 493 911 468 q 883 634 911 568 q 805 749 854 700 q 690 827 756 799 q 549 856 624 856 q 408 827 474 856 q 293 749 342 799 q 216 634 244 700 q 188 493 188 568 q 175 447 188 468 q 143 414 163 426 q 197 286 160 344 q 288 185 235 228 q 408 119 342 143 q 549 94 475 94 z "},"1":{"ha":408,"x_min":1,"x_max":407,"o":"m 294 1040 q 374 1008 342 1040 q 407 929 407 976 l 404 113 q 372 34 404 67 q 293 1 339 1 q 215 34 247 1 q 182 113 182 67 l 183 850 q 141 806 157 833 q 125 744 125 778 q 107 700 125 718 q 64 682 89 682 q 19 700 38 682 q 1 744 1 718 q 17 831 1 790 q 59 903 32 871 q 122 958 86 936 q 201 989 158 981 q 241 1026 217 1013 q 294 1040 265 1040 z "},"2":{"ha":756,"x_min":-1,"x_max":758,"o":"m 696 297 q 740 279 722 297 q 758 235 758 261 q 741 147 758 188 q 693 74 724 106 q 622 25 663 43 q 535 7 581 7 l 122 7 q 119 8 121 7 q 115 8 118 8 q 69 2 93 -1 q 26 22 46 6 q 0 79 1 46 q 22 138 -1 113 l 581 749 q 506 868 564 821 q 371 915 449 915 q 288 898 326 915 q 219 851 249 881 q 174 783 190 822 q 157 700 157 744 q 138 656 157 674 q 93 638 119 638 q 49 656 68 638 q 31 700 31 674 q 58 833 31 771 q 131 940 85 894 q 238 1013 176 986 q 371 1040 300 1040 q 478 1023 426 1040 q 572 975 529 1006 q 645 901 614 944 q 693 808 676 858 q 729 790 714 804 q 755 733 753 767 q 733 675 757 700 l 238 133 l 535 133 q 604 163 575 133 q 633 235 633 193 q 651 279 633 261 q 696 297 669 297 z "},"3":{"ha":733,"x_min":1,"x_max":735,"o":"m 496 710 q 592 656 547 690 q 667 578 636 622 q 717 479 699 533 q 735 367 735 425 q 706 225 735 292 q 626 108 676 158 q 510 29 576 58 q 368 0 443 0 q 225 29 292 0 q 108 108 158 58 q 30 225 58 158 q 1 367 1 292 q 24 421 1 399 q 78 443 46 443 q 132 421 110 443 q 154 367 154 399 q 171 283 154 322 q 217 215 188 244 q 285 169 246 186 q 368 153 324 153 q 451 169 413 153 q 519 215 490 186 q 565 283 549 244 q 582 367 582 322 q 565 450 582 411 q 519 518 549 489 q 451 564 490 547 q 368 581 413 581 q 314 603 336 581 q 292 657 292 625 q 313 710 292 689 q 364 733 333 732 l 439 836 q 392 917 431 885 q 300 949 353 949 l 110 949 q 77 962 90 949 q 64 994 64 975 q 77 1027 64 1014 q 110 1040 90 1040 l 300 1040 q 420 1008 367 1040 q 504 924 474 976 l 567 1008 q 606 1032 582 1028 q 650 1021 631 1036 q 674 981 669 1006 q 663 936 678 956 l 496 710 l 496 710 z "},"4":{"ha":832,"x_min":-3,"x_max":832,"o":"m 710 1042 q 797 1006 761 1042 q 832 919 832 971 l 829 124 q 794 38 829 74 q 707 1 758 1 q 621 37 657 1 q 585 124 585 72 l 585 267 q 549 263 568 263 l 171 263 l 161 251 q 101 217 138 222 q 36 235 65 213 q 2 294 7 258 q 21 360 -3 331 l 524 1007 q 582 1041 546 1036 q 647 1024 618 1046 q 710 1042 676 1042 m 549 357 q 567 358 558 357 q 586 363 576 360 l 588 800 l 243 357 l 549 357 z "},"5":{"ha":739,"x_min":1,"x_max":739,"o":"m 369 738 q 513 708 446 738 q 631 629 581 679 q 710 513 681 579 q 739 369 739 446 q 710 226 739 293 q 631 108 681 158 q 513 29 581 58 q 369 0 446 0 q 226 29 293 0 q 110 108 160 58 q 31 226 60 158 q 1 369 1 293 q 24 424 1 401 q 78 446 46 446 q 132 424 110 446 q 154 369 154 401 q 172 285 154 325 q 218 217 189 246 q 286 171 247 188 q 369 154 325 154 q 453 171 414 154 q 521 217 492 188 q 567 285 550 246 q 585 369 585 325 q 567 453 585 414 q 521 521 550 492 q 453 567 492 550 q 369 583 414 583 l 122 583 q 68 606 90 583 q 46 661 46 629 q 85 728 46 706 l 85 810 q 103 899 85 857 q 151 974 121 942 q 224 1024 182 1006 q 313 1042 265 1042 l 621 1042 q 653 1028 640 1042 q 667 994 667 1014 q 653 962 667 975 q 621 949 640 949 l 313 949 q 260 938 285 949 q 216 908 235 926 q 187 864 197 889 q 176 810 176 839 l 176 738 l 369 738 l 369 738 z "},"6":{"ha":760,"x_min":-1,"x_max":757,"o":"m 394 724 q 535 695 469 724 q 651 617 601 667 q 728 502 700 568 q 757 361 757 436 q 728 221 757 286 q 651 106 700 156 q 535 28 601 57 q 394 0 469 0 q 254 28 319 0 q 140 106 189 57 q 62 221 90 156 q 33 361 33 286 q 44 449 33 404 q 16 478 26 461 q 2 515 6 496 q 2 555 -1 535 q 18 592 6 575 l 301 997 q 331 1026 314 1015 q 367 1040 347 1036 q 406 1040 386 1043 q 444 1024 426 1036 q 488 957 481 999 q 471 881 494 915 l 360 722 q 378 723 369 722 q 394 724 386 724 m 394 160 q 474 176 436 160 q 538 219 511 192 q 581 283 565 246 q 597 361 597 319 q 581 440 597 403 q 538 505 565 478 q 474 548 511 532 q 394 564 436 564 q 316 548 353 564 q 252 505 279 532 q 209 440 225 478 q 193 361 193 403 q 209 283 193 319 q 252 219 225 246 q 316 176 279 192 q 394 160 353 160 z "},"7":{"ha":818,"x_min":1,"x_max":826,"o":"m 760 1031 q 813 974 799 1013 q 808 897 826 935 l 415 58 q 358 6 397 21 q 282 10 319 -8 q 230 67 244 28 q 233 143 215 106 l 582 888 l 246 888 q 199 878 221 888 q 160 851 176 868 q 135 810 144 833 q 125 763 125 788 q 107 718 125 736 q 63 700 89 700 q 19 718 38 700 q 1 763 1 736 q 21 859 1 814 q 74 938 40 904 q 151 992 107 972 q 246 1011 196 1011 l 647 1011 q 700 1039 669 1033 q 760 1031 731 1044 z "},"8":{"ha":674,"x_min":1,"x_max":671,"o":"m 613 421 q 655 388 639 411 q 671 336 671 365 q 644 206 671 267 q 573 99 618 144 q 467 28 528 54 q 336 1 406 1 q 206 28 267 1 q 99 99 144 54 q 28 206 54 144 q 1 336 1 267 q 17 388 1 365 q 60 421 33 411 q 131 539 81 492 q 67 633 90 579 q 43 749 43 686 q 66 862 43 808 q 129 956 89 915 q 222 1019 169 996 q 336 1042 275 1042 q 451 1019 397 1042 q 544 956 504 996 q 606 862 583 915 q 629 749 629 808 q 606 633 629 686 q 543 539 583 579 q 585 485 567 515 q 613 421 603 456 m 336 858 q 258 826 290 858 q 225 749 225 794 q 258 669 225 701 q 336 638 290 638 q 415 669 382 638 q 447 749 447 701 q 415 826 447 794 q 336 858 382 858 m 489 336 q 522 406 489 379 q 467 486 504 453 q 336 454 407 454 q 206 486 267 454 q 150 406 168 450 q 183 336 183 379 q 195 276 183 304 q 228 228 207 249 q 276 195 249 207 q 336 183 304 183 q 396 195 368 183 q 444 228 424 207 q 477 276 465 249 q 489 336 489 304 z "},"9":{"ha":732,"x_min":-3,"x_max":732,"o":"m 729 661 q 693 518 725 585 q 701 468 704 494 q 682 418 699 442 l 392 39 q 326 1 367 7 q 251 21 285 -4 q 214 87 219 46 q 233 160 208 128 l 350 313 l 349 313 q 208 347 274 315 q 96 431 143 379 q 23 550 49 482 q 0 693 -3 618 q 35 833 4 768 q 118 946 67 899 q 237 1019 169 993 q 381 1042 304 1044 q 519 1007 454 1038 q 633 922 585 976 q 708 802 683 869 q 729 661 732 735 m 185 685 q 196 614 183 647 q 232 555 208 581 q 288 513 256 529 q 357 496 319 497 q 428 507 394 494 q 487 543 461 519 q 528 599 513 567 q 544 668 543 631 q 499 799 549 742 q 372 857 447 853 l 365 857 q 297 844 329 857 q 240 807 264 831 q 201 752 215 783 q 185 685 186 721 z "},"B":{"ha":804,"x_min":1,"x_max":801,"o":"m 610 607 q 687 565 651 592 q 747 502 722 538 q 787 424 772 467 q 801 333 801 381 q 778 221 801 274 q 716 128 756 168 q 624 66 676 89 q 511 43 571 43 l 183 43 q 149 13 169 24 q 101 1 128 1 q 31 31 60 1 q 1 101 1 60 l 6 942 q 35 1012 6 982 q 107 1042 65 1042 q 167 1021 139 1042 l 463 1021 q 553 1003 511 1021 q 628 953 596 985 q 678 878 660 921 q 696 788 696 836 q 673 686 696 733 q 610 607 650 639 m 603 788 q 592 842 603 817 q 562 887 581 868 q 517 917 543 906 q 463 928 492 928 l 207 928 l 206 647 l 463 647 q 517 658 492 647 q 562 688 543 669 q 592 733 581 707 q 603 788 603 758 m 511 199 q 564 209 539 199 q 607 238 589 219 q 635 281 625 257 q 646 333 646 306 q 607 430 646 390 q 511 469 568 469 l 204 469 l 203 199 l 511 199 z "},"C":{"ha":1038,"x_min":1,"x_max":1044,"o":"m 985 410 q 1035 338 1025 383 q 1018 251 1044 292 q 818 67 940 133 q 554 0 696 0 q 340 44 440 0 q 164 163 239 88 q 45 338 89 238 q 1 554 1 439 q 24 621 1 592 q 79 661 46 650 q 142 813 97 743 q 249 933 186 882 q 389 1013 311 985 q 554 1042 467 1042 q 769 992 669 1042 q 940 851 869 943 q 950 816 953 836 q 932 783 947 796 q 895 774 915 771 q 863 792 875 776 q 726 903 807 864 q 554 943 646 943 q 425 921 486 943 q 315 860 364 899 q 230 767 265 821 q 178 650 194 713 q 216 610 201 635 q 231 554 231 585 q 256 428 231 488 q 326 324 282 368 q 428 255 369 281 q 554 229 488 229 q 709 268 638 229 q 826 376 781 307 q 899 426 853 417 q 985 410 944 436 z "},"D":{"ha":804,"x_min":1,"x_max":800,"o":"m 758 697 q 789 605 778 653 q 800 507 800 557 q 768 337 800 418 q 675 190 736 256 q 519 81 608 119 q 333 42 431 42 l 182 42 q 101 1 153 1 q 31 31 60 1 q 1 101 1 60 l 7 942 q 36 1012 7 982 q 107 1042 65 1042 q 169 1019 140 1042 l 333 1019 q 578 956 467 1019 q 760 779 690 892 q 770 738 771 760 q 758 697 769 717 m 607 254 q 681 371 656 306 q 707 507 707 436 q 672 664 707 588 q 626 699 642 674 q 502 821 579 778 q 333 864 425 864 l 207 864 l 203 135 l 333 135 q 483 165 413 135 q 607 254 554 196 z "},"E":{"ha":701,"x_min":0,"x_max":701,"o":"m 613 211 q 675 185 649 211 q 701 122 701 158 q 675 58 701 85 q 613 32 649 32 l 174 32 q 100 0 144 0 q 29 29 58 0 q 0 100 0 58 l 6 940 q 35 1011 6 982 q 106 1040 64 1040 q 176 1011 147 1040 q 206 940 206 982 l 206 918 q 286 931 243 931 l 622 931 q 667 913 649 931 q 685 868 685 894 q 667 825 685 843 q 622 807 649 807 l 286 807 q 206 782 242 807 l 204 543 q 286 517 242 517 l 514 517 q 558 499 540 517 q 576 454 576 481 q 558 411 576 429 q 514 393 540 393 l 286 393 q 203 406 242 393 l 201 211 l 613 211 l 613 211 z "},"F":{"ha":617,"x_min":0,"x_max":618,"o":"m 556 957 q 600 939 582 957 q 618 894 618 921 q 600 850 618 868 q 556 832 582 832 l 276 832 q 206 808 236 832 l 204 481 q 276 493 238 493 l 463 493 q 496 480 482 493 q 510 447 510 467 q 496 414 510 428 q 463 400 482 400 l 276 400 q 203 378 239 400 l 201 101 q 172 31 201 60 q 101 1 143 1 q 30 31 60 1 q 0 101 0 60 l 6 942 q 35 1012 6 982 q 106 1042 64 1042 q 174 1014 146 1042 q 206 946 203 986 q 276 957 242 957 l 556 957 l 556 957 z "},"G":{"ha":1038,"x_min":0,"x_max":1040,"o":"m 997 399 q 1035 329 1029 371 q 1017 251 1040 288 q 817 67 939 133 q 554 0 694 0 q 338 44 439 0 q 163 163 238 88 q 44 338 88 238 q 0 554 0 439 q 22 621 0 592 q 78 661 44 650 q 140 813 96 743 q 248 933 185 882 q 389 1013 311 985 q 554 1042 467 1042 q 768 992 668 1042 q 939 851 868 943 q 949 816 951 836 q 931 783 947 796 q 894 774 915 771 q 863 792 874 776 q 726 903 806 864 q 554 943 646 943 q 424 921 486 943 q 313 860 363 899 q 228 767 264 821 q 176 650 193 713 q 215 610 200 635 q 229 554 229 585 q 255 428 229 488 q 324 324 281 368 q 428 255 368 281 q 554 229 488 229 q 709 268 638 229 q 825 376 781 307 q 883 421 844 407 q 831 472 864 453 q 757 492 797 492 l 557 492 q 522 506 536 492 q 507 542 507 521 q 522 576 507 561 q 557 590 536 590 l 757 590 q 840 576 800 590 q 911 535 879 561 q 965 475 943 510 q 997 399 988 440 z "},"H":{"ha":863,"x_min":1,"x_max":863,"o":"m 763 1038 q 833 1008 804 1038 q 863 938 863 979 l 861 101 q 832 31 861 60 q 761 1 803 1 q 690 30 719 0 q 661 100 661 60 l 661 399 l 306 399 q 245 382 272 399 q 203 338 218 365 l 201 101 q 172 31 201 60 q 101 1 143 1 q 31 30 60 0 q 1 100 1 60 l 4 628 q 16 676 3 654 q 49 711 29 699 l 50 988 q 65 1025 50 1010 q 103 1040 81 1040 q 140 1025 125 1040 q 156 988 156 1010 l 156 714 q 190 678 176 700 q 204 628 203 656 l 203 500 q 306 522 254 522 l 663 522 l 663 936 q 692 1008 663 978 q 763 1038 721 1038 z "},"I":{"ha":203,"x_min":1,"x_max":203,"o":"m 156 836 q 190 801 178 824 q 203 751 203 779 l 201 101 q 172 31 201 60 q 101 1 143 1 q 31 30 60 0 q 1 100 1 60 l 4 751 q 16 801 3 779 q 50 836 29 822 l 50 988 q 65 1025 50 1010 q 103 1040 81 1040 q 140 1025 125 1040 q 156 988 156 1010 l 156 836 l 156 836 z "},"J":{"ha":521,"x_min":1,"x_max":522,"o":"m 422 1042 q 493 1013 464 1042 q 522 942 522 983 l 521 101 q 492 31 521 60 q 421 1 463 1 q 349 31 378 1 q 295 9 324 17 q 235 1 267 1 q 144 19 186 1 q 69 69 101 38 q 19 144 38 101 q 1 235 1 186 q 15 267 1 254 q 49 281 29 281 q 81 267 68 281 q 94 235 94 254 q 106 180 94 206 q 135 135 117 154 q 180 106 154 117 q 235 94 206 94 q 319 124 282 94 l 322 940 q 351 1012 322 982 q 422 1042 381 1042 z "},"K":{"ha":788,"x_min":1,"x_max":790,"o":"m 757 1031 q 785 990 779 1015 q 775 942 790 964 l 418 417 l 644 174 q 669 107 671 146 q 639 40 668 68 q 572 15 611 14 q 506 46 532 17 l 203 371 l 203 101 q 173 31 203 60 q 103 1 143 1 q 31 30 61 0 q 1 101 1 60 l 4 940 q 33 1012 4 982 q 104 1042 63 1042 q 175 1013 146 1042 q 204 942 204 983 l 204 647 l 329 511 l 669 1014 q 710 1041 685 1036 q 757 1031 736 1046 z "},"L":{"ha":675,"x_min":1,"x_max":674,"o":"m 613 190 q 656 172 638 190 q 674 128 674 154 q 656 83 674 101 q 613 65 638 65 l 272 65 q 199 78 233 65 q 165 23 192 44 q 103 1 138 1 q 31 30 61 0 q 1 101 1 60 l 4 940 q 33 1012 4 982 q 104 1042 63 1042 q 175 1013 146 1042 q 204 942 204 983 l 203 214 q 272 190 233 190 l 613 190 l 613 190 z "},"M":{"ha":1068,"x_min":1,"x_max":1069,"o":"m 968 1042 q 1040 1013 1010 1042 q 1069 942 1069 983 l 1067 101 q 1038 31 1067 60 q 967 1 1008 1 q 896 30 925 0 q 867 101 867 60 l 868 625 l 526 317 q 481 300 507 299 q 436 321 454 301 q 420 365 419 340 q 439 408 421 390 l 204 654 l 203 101 q 173 31 203 60 q 101 1 143 1 q 63 9 81 1 q 31 30 44 17 q 10 62 18 43 q 1 101 1 81 l 4 940 q 33 1012 4 982 q 104 1042 63 1042 q 175 1013 146 1042 q 204 942 204 983 l 204 797 l 513 475 l 868 797 l 868 940 q 898 1012 868 982 q 968 1042 928 1042 z "},"N":{"ha":918,"x_min":1,"x_max":919,"o":"m 818 1042 q 890 1013 860 1042 q 919 942 919 983 l 917 101 q 888 31 917 60 q 817 0 858 1 q 746 30 775 0 q 717 101 717 60 l 717 221 l 222 644 l 221 101 q 191 31 221 60 q 119 0 161 1 q 115 1 117 0 q 111 1 114 1 q 106 1 108 1 q 101 0 104 0 q 31 30 60 0 q 1 101 1 60 l 4 940 q 33 1012 3 982 q 104 1042 63 1042 q 108 1041 107 1042 q 113 1040 110 1040 q 117 1041 115 1040 q 122 1042 119 1042 q 193 1013 164 1042 q 222 942 222 983 l 222 835 q 229 830 225 832 q 236 825 233 828 l 717 413 l 718 940 q 747 1012 718 982 q 818 1042 776 1042 z "},"O":{"ha":1096,"x_min":1,"x_max":1097,"o":"m 1050 629 q 1084 596 1071 617 q 1097 549 1097 575 q 1054 335 1097 435 q 937 160 1011 235 q 763 43 863 86 q 549 0 663 0 q 336 43 436 0 q 162 160 236 86 q 44 335 88 235 q 1 549 1 435 q 49 629 1 603 q 111 792 65 717 q 223 923 157 868 q 372 1009 289 978 q 549 1040 456 1040 q 725 1009 642 1040 q 875 923 808 978 q 988 792 942 868 q 1050 629 1033 717 m 911 549 q 923 594 911 574 q 954 628 935 615 q 900 755 938 696 q 809 856 863 814 q 689 923 756 899 q 549 947 622 947 q 409 923 475 947 q 290 856 343 899 q 198 755 236 814 q 143 628 160 696 q 175 594 163 615 q 188 549 188 574 q 216 408 188 474 q 294 292 244 342 q 408 215 343 243 q 549 186 474 186 q 690 215 624 186 q 805 292 756 243 q 883 408 854 342 q 911 549 911 474 z "},"P":{"ha":763,"x_min":0,"x_max":760,"o":"m 392 1004 q 535 975 468 1004 q 651 896 601 946 q 731 779 701 846 q 760 636 760 713 q 731 493 760 560 q 651 376 701 426 q 535 298 601 326 q 392 269 468 269 l 201 269 l 201 101 q 172 31 201 60 q 101 0 143 1 q 30 30 60 0 q 0 101 0 60 l 3 940 q 32 1012 3 982 q 103 1042 61 1042 q 147 1031 126 1042 q 181 1004 167 1021 l 392 1004 m 392 424 q 474 440 435 424 q 542 486 513 457 q 588 553 571 515 q 604 636 604 592 q 588 718 604 679 q 542 786 571 757 q 474 832 513 815 q 392 849 435 849 l 204 849 l 203 424 l 392 424 z "},"Q":{"ha":1140,"x_min":0,"x_max":1140,"o":"m 1122 169 q 1140 125 1140 150 q 1122 82 1140 100 q 1039 26 1085 44 q 944 8 993 8 q 866 21 904 8 q 794 60 828 33 q 677 16 739 32 q 549 0 615 0 q 335 43 435 0 q 160 160 235 86 q 43 335 86 235 q 0 549 0 435 q 13 596 0 575 q 47 629 26 617 q 111 792 65 717 q 223 923 157 868 q 372 1009 289 978 q 549 1040 456 1040 q 725 1009 642 1040 q 874 923 808 978 q 986 792 940 868 q 1050 629 1032 717 q 1084 596 1071 617 q 1097 549 1097 575 q 1047 319 1097 425 q 911 138 997 213 q 976 136 943 128 q 1033 169 1008 144 q 1078 188 1053 188 q 1122 169 1103 188 m 188 549 q 216 408 188 474 q 294 292 244 342 q 408 215 343 243 q 549 186 474 186 q 650 201 600 186 l 574 276 q 556 321 556 296 q 574 365 556 346 q 618 383 593 383 q 663 365 643 383 l 767 260 q 872 385 833 310 q 911 549 911 460 q 923 594 911 574 q 954 628 935 615 q 900 755 938 696 q 809 856 863 814 q 689 923 756 899 q 549 947 622 947 q 409 923 475 947 q 290 856 343 899 q 198 755 236 814 q 143 628 160 696 q 175 594 163 615 q 188 549 188 574 z "},"R":{"ha":881,"x_min":0,"x_max":879,"o":"m 860 168 q 879 124 879 149 q 860 79 879 99 q 778 25 824 43 q 683 7 732 7 q 592 24 636 7 q 511 78 547 42 l 319 269 l 201 269 l 201 101 q 172 31 201 60 q 101 0 143 1 q 30 30 60 0 q 0 101 0 60 l 3 940 q 32 1012 3 982 q 103 1042 61 1042 q 147 1031 126 1042 q 181 1004 167 1021 l 407 1004 q 550 975 483 1004 q 667 896 617 946 q 746 779 717 846 q 775 636 775 713 q 753 512 775 571 q 692 405 731 453 q 601 324 654 357 q 486 278 549 292 l 599 165 q 639 139 617 147 q 685 131 661 131 q 731 140 708 131 q 772 168 754 150 q 817 186 792 186 q 860 168 842 186 m 201 424 l 407 424 q 489 440 450 424 q 557 486 528 457 q 603 553 586 515 q 619 636 619 592 q 603 718 619 679 q 557 786 586 757 q 489 832 528 815 q 407 849 450 849 l 203 849 l 201 424 z "},"S":{"ha":681,"x_min":0,"x_max":679,"o":"m 450 543 q 540 515 499 538 q 613 458 582 493 q 662 379 644 424 q 679 285 679 335 q 658 183 679 231 q 602 99 638 135 q 519 44 567 64 q 418 24 472 24 l 358 24 q 303 0 338 0 q 185 24 240 0 q 89 89 131 47 q 24 185 47 131 q 0 303 0 240 q 23 358 0 335 q 78 381 46 381 q 132 358 110 381 q 154 303 154 335 q 166 245 154 272 q 198 198 178 218 q 245 166 218 178 q 303 154 272 154 q 342 144 325 154 q 369 115 360 133 l 418 115 q 483 128 453 115 q 537 165 514 142 q 573 219 560 188 q 586 285 586 250 q 574 348 586 318 q 540 400 561 378 q 490 436 518 422 q 428 453 461 450 q 379 436 407 436 q 262 460 317 436 q 165 524 207 483 q 100 621 124 565 q 76 739 76 676 q 100 856 76 801 q 165 953 124 911 q 262 1018 207 994 q 379 1042 317 1042 q 473 1026 428 1042 q 556 984 518 1011 q 623 919 594 957 q 667 836 651 882 q 663 777 678 806 q 618 738 649 749 q 560 742 588 728 q 521 786 532 756 q 467 860 506 832 q 379 888 428 888 q 322 876 349 888 q 274 844 294 864 q 242 797 254 824 q 231 739 231 769 q 242 681 231 708 q 274 634 254 654 q 322 602 294 614 q 379 590 349 590 q 422 577 403 590 q 450 543 442 564 z "},"T":{"ha":811,"x_min":1,"x_max":811,"o":"m 767 1004 q 798 992 785 1004 q 811 960 811 979 q 799 928 811 940 q 767 915 786 915 l 607 915 q 540 879 585 879 l 472 879 l 472 875 l 469 101 q 440 31 469 60 q 369 0 411 1 q 299 29 329 0 q 269 100 269 58 l 272 875 l 272 881 l 82 881 q 25 904 49 881 q 1 961 1 928 q 25 1017 1 993 q 81 1040 49 1040 l 540 1039 q 578 1029 561 1039 q 606 1004 594 1019 l 767 1004 l 767 1004 z "},"U":{"ha":825,"x_min":1,"x_max":822,"o":"m 794 468 q 822 410 822 444 q 790 251 822 325 q 703 121 758 176 q 573 33 647 65 q 414 1 499 1 q 254 33 329 1 q 124 121 179 65 q 36 251 68 176 q 4 410 4 325 q 13 445 4 429 q 38 472 22 461 l 38 644 q 1 711 1 667 l 3 956 q 26 1012 3 989 q 83 1036 50 1035 q 140 1013 117 1036 q 164 956 164 989 l 161 713 q 151 674 161 692 q 126 646 142 657 l 126 474 q 151 446 142 463 q 160 410 160 429 q 180 310 160 357 q 234 230 200 264 q 315 176 268 196 q 414 156 361 156 q 512 176 465 156 q 592 230 558 196 q 647 310 626 264 q 667 410 667 357 q 674 442 667 428 q 693 468 682 457 l 694 990 q 709 1026 694 1011 q 744 1042 724 1042 q 781 1027 765 1042 q 796 992 796 1013 l 794 468 l 794 468 z "},"V":{"ha":925,"x_min":-8,"x_max":929,"o":"m 888 939 q 920 903 911 928 q 918 854 929 878 l 582 160 l 589 143 q 594 67 608 106 q 540 10 579 28 q 463 6 503 -8 q 406 58 424 21 l 10 897 q 6 974 -8 935 q 58 1031 21 1013 q 136 1035 97 1049 q 193 982 175 1021 l 511 308 l 801 908 q 838 941 813 932 q 888 939 864 950 z "},"W":{"ha":1246,"x_min":-7,"x_max":1251,"o":"m 1204 1038 q 1240 1003 1229 1028 q 1240 956 1251 979 l 975 276 l 1043 125 q 1046 58 1058 93 q 1000 8 1033 24 q 932 6 967 -7 q 882 53 897 19 l 636 590 l 485 258 l 519 176 q 519 105 535 140 q 468 54 504 69 q 396 53 432 39 q 344 104 360 68 l 8 903 q 8 974 -7 939 q 58 1025 22 1010 q 131 1024 94 1039 q 182 975 167 1010 l 438 371 l 586 699 l 543 792 q 540 859 528 825 q 588 908 553 893 q 655 910 621 924 q 704 865 689 897 l 901 438 l 1122 1001 q 1156 1036 1132 1025 q 1204 1038 1181 1047 z "},"X":{"ha":804,"x_min":-4,"x_max":810,"o":"m 786 167 q 800 87 810 129 q 754 21 790 44 q 674 7 717 -3 q 607 53 631 17 l 371 422 l 129 33 q 86 3 114 10 q 33 11 58 -4 q 3 54 10 26 q 11 106 -4 82 l 288 551 l 82 872 q 67 952 58 910 q 114 1018 76 994 q 194 1032 151 1042 q 261 986 238 1022 l 468 663 l 683 1019 q 711 1040 693 1035 q 744 1035 729 1044 q 765 1007 760 1025 q 760 974 769 989 l 522 579 l 786 167 l 786 167 z "},"Y":{"ha":764,"x_min":-6,"x_max":765,"o":"m 740 1035 q 760 1007 756 1025 q 756 974 765 989 l 489 532 l 486 117 q 453 35 486 68 q 371 0 419 1 q 288 34 322 0 q 254 117 254 68 l 257 504 q 214 542 228 515 l 11 910 q 4 975 -6 942 q 44 1025 14 1008 q 108 1033 75 1042 q 158 992 142 1024 l 347 649 q 372 653 360 653 q 443 628 411 653 l 679 1019 q 707 1040 689 1035 q 740 1035 725 1044 z "},"Z":{"ha":756,"x_min":-7,"x_max":754,"o":"m 674 221 q 731 198 707 221 q 754 142 754 175 q 731 86 754 110 q 675 63 707 63 l 201 63 l 194 53 q 132 4 174 15 q 53 14 90 -7 q 5 77 17 36 q 15 156 -7 118 l 433 876 l 50 876 q 16 891 31 876 q 1 925 1 906 q 15 960 1 946 q 50 975 29 975 l 490 975 l 500 990 q 563 1038 521 1026 q 642 1028 604 1049 q 690 965 679 1006 q 679 888 701 924 l 293 221 l 674 221 l 674 221 z "},"?":{"ha":669,"x_min":1,"x_max":669,"o":"m 669 707 q 649 591 669 646 q 591 493 628 536 q 504 420 554 450 q 396 379 454 390 l 396 276 q 453 223 432 257 q 475 147 475 189 q 433 42 475 85 q 328 0 390 0 q 271 12 297 0 q 224 43 244 24 q 193 90 204 63 q 182 147 182 117 q 208 230 182 193 q 274 282 233 267 l 274 403 q 257 451 257 426 q 280 506 257 483 q 335 529 303 529 q 405 543 372 529 q 462 581 438 557 q 500 638 486 606 q 514 707 514 669 q 500 777 514 744 q 462 834 486 810 q 405 872 438 858 q 335 886 372 886 q 265 872 297 886 q 209 834 233 858 q 171 777 185 810 q 157 707 157 744 q 134 652 157 675 q 79 629 111 629 q 24 652 47 629 q 1 707 1 675 q 28 838 1 776 q 99 944 54 899 q 205 1015 144 989 q 335 1042 265 1042 q 465 1015 404 1042 q 572 944 526 989 q 643 838 617 899 q 669 707 669 776 z "},"!":{"ha":297,"x_min":1,"x_max":297,"o":"m 149 296 q 206 284 179 296 q 253 252 233 272 q 285 205 274 232 q 297 147 297 178 q 285 90 297 117 q 253 44 274 64 q 206 12 233 24 q 149 0 179 0 q 92 12 118 0 q 45 44 65 24 q 13 90 25 64 q 1 147 1 117 q 13 205 1 178 q 45 252 25 232 q 92 284 65 272 q 149 296 118 296 m 83 579 q 47 656 47 608 l 49 939 q 78 1011 49 982 q 150 1042 108 1040 q 222 1012 192 1042 q 251 940 251 982 l 249 657 q 237 609 249 631 q 206 574 225 588 l 206 422 q 188 378 206 396 q 143 361 169 361 q 100 379 118 361 q 82 424 82 397 l 83 579 z "},"¡":{"ha":297,"x_min":1,"x_max":297,"o":"m 149 746 q 92 758 118 746 q 45 789 65 769 q 13 835 25 808 q 1 893 1 863 q 13 951 1 924 q 45 998 25 978 q 92 1030 65 1018 q 149 1042 118 1042 q 206 1030 179 1042 q 253 998 233 1018 q 285 951 274 978 q 297 893 297 924 q 285 835 297 863 q 253 789 274 808 q 206 758 233 769 q 149 746 179 746 m 215 463 q 242 428 232 447 q 251 385 251 408 l 249 101 q 220 30 250 60 q 149 0 190 0 q 76 29 106 0 q 47 101 47 58 l 49 385 q 60 432 49 411 q 92 468 72 453 l 93 619 q 111 663 93 644 q 154 681 129 681 q 198 661 181 679 q 215 618 215 643 l 215 463 z "},"¿":{"ha":669,"x_min":0,"x_max":668,"o":"m 0 333 q 21 449 0 394 q 78 548 42 504 q 165 622 115 592 q 274 663 215 651 l 274 765 q 216 818 238 785 q 194 894 194 851 q 206 951 194 925 q 237 998 217 978 q 283 1030 257 1018 q 340 1042 310 1042 q 398 1030 371 1042 q 444 998 425 1018 q 476 951 464 978 q 488 894 488 925 q 462 812 488 849 q 396 758 436 775 l 394 638 q 413 590 413 617 q 390 535 413 558 q 335 513 367 513 q 265 499 297 513 q 208 460 232 485 q 169 403 183 436 q 156 333 156 371 q 169 265 156 297 q 208 208 183 232 q 265 169 232 183 q 335 156 297 156 q 404 169 372 156 q 460 208 436 183 q 499 265 485 232 q 513 333 513 297 q 535 388 513 365 q 590 411 558 411 q 645 388 622 411 q 668 333 668 365 q 642 203 668 264 q 570 98 615 143 q 464 26 525 53 q 335 0 403 0 q 204 26 265 0 q 98 98 143 53 q 26 203 53 143 q 0 333 0 264 z "},"a":{"ha":872,"x_min":-8,"x_max":874,"o":"m 863 93 q 865 44 874 69 q 832 7 856 18 q 783 5 808 -4 q 747 38 758 14 l 668 203 l 258 203 l 192 60 q 135 8 174 22 q 58 11 96 -7 q 6 68 19 29 q 10 144 -8 107 l 403 983 q 460 1036 421 1022 q 536 1032 499 1050 q 588 975 574 1014 q 585 899 603 936 l 531 783 l 863 93 m 607 329 l 461 635 l 318 329 l 607 329 z "},"b":{"ha":804,"x_min":1,"x_max":801,"o":"m 610 607 q 687 565 651 592 q 747 502 722 538 q 787 424 772 467 q 801 333 801 381 q 778 221 801 274 q 716 128 756 168 q 624 66 676 89 q 511 43 571 43 l 183 43 q 149 13 169 24 q 101 1 128 1 q 31 31 60 1 q 1 101 1 60 l 6 942 q 35 1012 6 982 q 107 1042 65 1042 q 167 1021 139 1042 l 463 1021 q 553 1003 511 1021 q 628 953 596 985 q 678 878 660 921 q 696 788 696 836 q 673 686 696 733 q 610 607 650 639 m 603 788 q 592 842 603 817 q 562 887 581 868 q 517 917 543 906 q 463 928 492 928 l 207 928 l 206 647 l 463 647 q 517 658 492 647 q 562 688 543 669 q 592 733 581 707 q 603 788 603 758 m 511 199 q 564 209 539 199 q 607 238 589 219 q 635 281 625 257 q 646 333 646 306 q 607 430 646 390 q 511 469 568 469 l 204 469 l 203 199 l 511 199 z "},"c":{"ha":1038,"x_min":1,"x_max":1044,"o":"m 985 410 q 1035 338 1025 383 q 1018 251 1044 292 q 818 67 940 133 q 554 0 696 0 q 340 44 440 0 q 164 163 239 88 q 45 338 89 238 q 1 554 1 439 q 24 621 1 592 q 79 661 46 650 q 142 813 97 743 q 249 933 186 882 q 389 1013 311 985 q 554 1042 467 1042 q 769 992 669 1042 q 940 851 869 943 q 950 816 953 836 q 932 783 947 796 q 895 774 915 771 q 863 792 875 776 q 726 903 807 864 q 554 943 646 943 q 425 921 486 943 q 315 860 364 899 q 230 767 265 821 q 178 650 194 713 q 216 610 201 635 q 231 554 231 585 q 256 428 231 488 q 326 324 282 368 q 428 255 369 281 q 554 229 488 229 q 709 268 638 229 q 826 376 781 307 q 899 426 853 417 q 985 410 944 436 z "},"d":{"ha":804,"x_min":1,"x_max":800,"o":"m 758 697 q 789 605 778 653 q 800 507 800 557 q 768 337 800 418 q 675 190 736 256 q 519 81 608 119 q 333 42 431 42 l 182 42 q 101 1 153 1 q 31 31 60 1 q 1 101 1 60 l 7 942 q 36 1012 7 982 q 107 1042 65 1042 q 169 1019 140 1042 l 333 1019 q 578 956 467 1019 q 760 779 690 892 q 770 738 771 760 q 758 697 769 717 m 607 254 q 681 371 656 306 q 707 507 707 436 q 672 664 707 588 q 626 699 642 674 q 502 821 579 778 q 333 864 425 864 l 207 864 l 203 135 l 333 135 q 483 165 413 135 q 607 254 554 196 z "},"e":{"ha":701,"x_min":0,"x_max":701,"o":"m 613 211 q 675 185 649 211 q 701 122 701 158 q 675 58 701 85 q 613 32 649 32 l 174 32 q 100 0 144 0 q 29 29 58 0 q 0 100 0 58 l 6 940 q 35 1011 6 982 q 106 1040 64 1040 q 176 1011 147 1040 q 206 940 206 982 l 206 918 q 286 931 243 931 l 622 931 q 667 913 649 931 q 685 868 685 894 q 667 825 685 843 q 622 807 649 807 l 286 807 q 206 782 242 807 l 204 543 q 286 517 242 517 l 514 517 q 558 499 540 517 q 576 454 576 481 q 558 411 576 429 q 514 393 540 393 l 286 393 q 203 406 242 393 l 201 211 l 613 211 l 613 211 z "},"f":{"ha":617,"x_min":0,"x_max":618,"o":"m 556 957 q 600 939 582 957 q 618 894 618 921 q 600 850 618 868 q 556 832 582 832 l 276 832 q 206 808 236 832 l 204 481 q 276 493 238 493 l 463 493 q 496 480 482 493 q 510 447 510 467 q 496 414 510 428 q 463 400 482 400 l 276 400 q 203 378 239 400 l 201 101 q 172 31 201 60 q 101 1 143 1 q 30 31 60 1 q 0 101 0 60 l 6 942 q 35 1012 6 982 q 106 1042 64 1042 q 174 1014 146 1042 q 206 946 203 986 q 276 957 242 957 l 556 957 l 556 957 z "},"g":{"ha":1038,"x_min":0,"x_max":1040,"o":"m 997 399 q 1035 329 1029 371 q 1017 251 1040 288 q 817 67 939 133 q 554 0 694 0 q 338 44 439 0 q 163 163 238 88 q 44 338 88 238 q 0 554 0 439 q 22 621 0 592 q 78 661 44 650 q 140 813 96 743 q 248 933 185 882 q 389 1013 311 985 q 554 1042 467 1042 q 768 992 668 1042 q 939 851 868 943 q 949 816 951 836 q 931 783 947 796 q 894 774 915 771 q 863 792 874 776 q 726 903 806 864 q 554 943 646 943 q 424 921 486 943 q 313 860 363 899 q 228 767 264 821 q 176 650 193 713 q 215 610 200 635 q 229 554 229 585 q 255 428 229 488 q 324 324 281 368 q 428 255 368 281 q 554 229 488 229 q 709 268 638 229 q 825 376 781 307 q 883 421 844 407 q 831 472 864 453 q 757 492 797 492 l 557 492 q 522 506 536 492 q 507 542 507 521 q 522 576 507 561 q 557 590 536 590 l 757 590 q 840 576 800 590 q 911 535 879 561 q 965 475 943 510 q 997 399 988 440 z "},"h":{"ha":863,"x_min":1,"x_max":863,"o":"m 763 1038 q 833 1008 804 1038 q 863 938 863 979 l 861 101 q 832 31 861 60 q 761 1 803 1 q 690 30 719 0 q 661 100 661 60 l 661 399 l 306 399 q 245 382 272 399 q 203 338 218 365 l 201 101 q 172 31 201 60 q 101 1 143 1 q 31 30 60 0 q 1 100 1 60 l 4 628 q 16 676 3 654 q 49 711 29 699 l 50 988 q 65 1025 50 1010 q 103 1040 81 1040 q 140 1025 125 1040 q 156 988 156 1010 l 156 714 q 190 678 176 700 q 204 628 203 656 l 203 500 q 306 522 254 522 l 663 522 l 663 936 q 692 1008 663 978 q 763 1038 721 1038 z "},"i":{"ha":203,"x_min":1,"x_max":203,"o":"m 156 836 q 190 801 178 824 q 203 751 203 779 l 201 101 q 172 31 201 60 q 101 1 143 1 q 31 30 60 0 q 1 100 1 60 l 4 751 q 16 801 3 779 q 50 836 29 822 l 50 988 q 65 1025 50 1010 q 103 1040 81 1040 q 140 1025 125 1040 q 156 988 156 1010 l 156 836 l 156 836 z "},"j":{"ha":521,"x_min":1,"x_max":522,"o":"m 422 1042 q 493 1013 464 1042 q 522 942 522 983 l 521 101 q 492 31 521 60 q 421 1 463 1 q 349 31 378 1 q 295 9 324 17 q 235 1 267 1 q 144 19 186 1 q 69 69 101 38 q 19 144 38 101 q 1 235 1 186 q 15 267 1 254 q 49 281 29 281 q 81 267 68 281 q 94 235 94 254 q 106 180 94 206 q 135 135 117 154 q 180 106 154 117 q 235 94 206 94 q 319 124 282 94 l 322 940 q 351 1012 322 982 q 422 1042 381 1042 z "},"k":{"ha":788,"x_min":1,"x_max":790,"o":"m 757 1031 q 785 990 779 1015 q 775 942 790 964 l 418 417 l 644 174 q 669 107 671 146 q 639 40 668 68 q 572 15 611 14 q 506 46 532 17 l 203 371 l 203 101 q 173 31 203 60 q 103 1 143 1 q 31 30 61 0 q 1 101 1 60 l 4 940 q 33 1012 4 982 q 104 1042 63 1042 q 175 1013 146 1042 q 204 942 204 983 l 204 647 l 329 511 l 669 1014 q 710 1041 685 1036 q 757 1031 736 1046 z "},"l":{"ha":675,"x_min":1,"x_max":674,"o":"m 613 190 q 656 172 638 190 q 674 128 674 154 q 656 83 674 101 q 613 65 638 65 l 272 65 q 199 78 233 65 q 165 23 192 44 q 103 1 138 1 q 31 30 61 0 q 1 101 1 60 l 4 940 q 33 1012 4 982 q 104 1042 63 1042 q 175 1013 146 1042 q 204 942 204 983 l 203 214 q 272 190 233 190 l 613 190 l 613 190 z "},"m":{"ha":1068,"x_min":1,"x_max":1069,"o":"m 968 1042 q 1040 1013 1010 1042 q 1069 942 1069 983 l 1067 101 q 1038 31 1067 60 q 967 1 1008 1 q 896 30 925 0 q 867 101 867 60 l 868 625 l 526 317 q 481 300 507 299 q 436 321 454 301 q 420 365 419 340 q 439 408 421 390 l 204 654 l 203 101 q 173 31 203 60 q 101 1 143 1 q 63 9 81 1 q 31 30 44 17 q 10 62 18 43 q 1 101 1 81 l 4 940 q 33 1012 4 982 q 104 1042 63 1042 q 175 1013 146 1042 q 204 942 204 983 l 204 797 l 513 475 l 868 797 l 868 940 q 898 1012 868 982 q 968 1042 928 1042 z "},"n":{"ha":918,"x_min":1,"x_max":919,"o":"m 818 1042 q 890 1013 860 1042 q 919 942 919 983 l 917 101 q 888 31 917 60 q 817 0 858 1 q 746 30 775 0 q 717 101 717 60 l 717 221 l 222 644 l 221 101 q 191 31 221 60 q 119 0 161 1 q 115 1 117 0 q 111 1 114 1 q 106 1 108 1 q 101 0 104 0 q 31 30 60 0 q 1 101 1 60 l 4 940 q 33 1012 3 982 q 104 1042 63 1042 q 108 1041 107 1042 q 113 1040 110 1040 q 117 1041 115 1040 q 122 1042 119 1042 q 193 1013 164 1042 q 222 942 222 983 l 222 835 q 229 830 225 832 q 236 825 233 828 l 717 413 l 718 940 q 747 1012 718 982 q 818 1042 776 1042 z "},"o":{"ha":1096,"x_min":1,"x_max":1097,"o":"m 1050 629 q 1084 596 1071 617 q 1097 549 1097 575 q 1054 335 1097 435 q 937 160 1011 235 q 763 43 863 86 q 549 0 663 0 q 336 43 436 0 q 162 160 236 86 q 44 335 88 235 q 1 549 1 435 q 49 629 1 603 q 111 792 65 717 q 223 923 157 868 q 372 1009 289 978 q 549 1040 456 1040 q 725 1009 642 1040 q 875 923 808 978 q 988 792 942 868 q 1050 629 1033 717 m 911 549 q 923 594 911 574 q 954 628 935 615 q 900 755 938 696 q 809 856 863 814 q 689 923 756 899 q 549 947 622 947 q 409 923 475 947 q 290 856 343 899 q 198 755 236 814 q 143 628 160 696 q 175 594 163 615 q 188 549 188 574 q 216 408 188 474 q 294 292 244 342 q 408 215 343 243 q 549 186 474 186 q 690 215 624 186 q 805 292 756 243 q 883 408 854 342 q 911 549 911 474 z "},"p":{"ha":763,"x_min":0,"x_max":760,"o":"m 392 1004 q 535 975 468 1004 q 651 896 601 946 q 731 779 701 846 q 760 636 760 713 q 731 493 760 560 q 651 376 701 426 q 535 298 601 326 q 392 269 468 269 l 201 269 l 201 101 q 172 31 201 60 q 101 0 143 1 q 30 30 60 0 q 0 101 0 60 l 3 940 q 32 1012 3 982 q 103 1042 61 1042 q 147 1031 126 1042 q 181 1004 167 1021 l 392 1004 m 392 424 q 474 440 435 424 q 542 486 513 457 q 588 553 571 515 q 604 636 604 592 q 588 718 604 679 q 542 786 571 757 q 474 832 513 815 q 392 849 435 849 l 204 849 l 203 424 l 392 424 z "},"q":{"ha":1140,"x_min":0,"x_max":1140,"o":"m 1122 169 q 1140 125 1140 150 q 1122 82 1140 100 q 1039 26 1085 44 q 944 8 993 8 q 866 21 904 8 q 794 60 828 33 q 677 16 739 32 q 549 0 615 0 q 335 43 435 0 q 160 160 235 86 q 43 335 86 235 q 0 549 0 435 q 13 596 0 575 q 47 629 26 617 q 111 792 65 717 q 223 923 157 868 q 372 1009 289 978 q 549 1040 456 1040 q 725 1009 642 1040 q 874 923 808 978 q 986 792 940 868 q 1050 629 1032 717 q 1084 596 1071 617 q 1097 549 1097 575 q 1047 319 1097 425 q 911 138 997 213 q 976 136 943 128 q 1033 169 1008 144 q 1078 188 1053 188 q 1122 169 1103 188 m 188 549 q 216 408 188 474 q 294 292 244 342 q 408 215 343 243 q 549 186 474 186 q 650 201 600 186 l 574 276 q 556 321 556 296 q 574 365 556 346 q 618 383 593 383 q 663 365 643 383 l 767 260 q 872 385 833 310 q 911 549 911 460 q 923 594 911 574 q 954 628 935 615 q 900 755 938 696 q 809 856 863 814 q 689 923 756 899 q 549 947 622 947 q 409 923 475 947 q 290 856 343 899 q 198 755 236 814 q 143 628 160 696 q 175 594 163 615 q 188 549 188 574 z "},"r":{"ha":881,"x_min":0,"x_max":879,"o":"m 860 168 q 879 124 879 149 q 860 79 879 99 q 778 25 824 43 q 683 7 732 7 q 592 24 636 7 q 511 78 547 42 l 319 269 l 201 269 l 201 101 q 172 31 201 60 q 101 0 143 1 q 30 30 60 0 q 0 101 0 60 l 3 940 q 32 1012 3 982 q 103 1042 61 1042 q 147 1031 126 1042 q 181 1004 167 1021 l 407 1004 q 550 975 483 1004 q 667 896 617 946 q 746 779 717 846 q 775 636 775 713 q 753 512 775 571 q 692 405 731 453 q 601 324 654 357 q 486 278 549 292 l 599 165 q 639 139 617 147 q 685 131 661 131 q 731 140 708 131 q 772 168 754 150 q 817 186 792 186 q 860 168 842 186 m 201 424 l 407 424 q 489 440 450 424 q 557 486 528 457 q 603 553 586 515 q 619 636 619 592 q 603 718 619 679 q 557 786 586 757 q 489 832 528 815 q 407 849 450 849 l 203 849 l 201 424 z "},"s":{"ha":681,"x_min":0,"x_max":679,"o":"m 450 543 q 540 515 499 538 q 613 458 582 493 q 662 379 644 424 q 679 285 679 335 q 658 183 679 231 q 602 99 638 135 q 519 44 567 64 q 418 24 472 24 l 358 24 q 303 0 338 0 q 185 24 240 0 q 89 89 131 47 q 24 185 47 131 q 0 303 0 240 q 23 358 0 335 q 78 381 46 381 q 132 358 110 381 q 154 303 154 335 q 166 245 154 272 q 198 198 178 218 q 245 166 218 178 q 303 154 272 154 q 342 144 325 154 q 369 115 360 133 l 418 115 q 483 128 453 115 q 537 165 514 142 q 573 219 560 188 q 586 285 586 250 q 574 348 586 318 q 540 400 561 378 q 490 436 518 422 q 428 453 461 450 q 379 436 407 436 q 262 460 317 436 q 165 524 207 483 q 100 621 124 565 q 76 739 76 676 q 100 856 76 801 q 165 953 124 911 q 262 1018 207 994 q 379 1042 317 1042 q 473 1026 428 1042 q 556 984 518 1011 q 623 919 594 957 q 667 836 651 882 q 663 777 678 806 q 618 738 649 749 q 560 742 588 728 q 521 786 532 756 q 467 860 506 832 q 379 888 428 888 q 322 876 349 888 q 274 844 294 864 q 242 797 254 824 q 231 739 231 769 q 242 681 231 708 q 274 634 254 654 q 322 602 294 614 q 379 590 349 590 q 422 577 403 590 q 450 543 442 564 z "},"t":{"ha":811,"x_min":1,"x_max":811,"o":"m 767 1004 q 798 992 785 1004 q 811 960 811 979 q 799 928 811 940 q 767 915 786 915 l 607 915 q 540 879 585 879 l 472 879 l 472 875 l 469 101 q 440 31 469 60 q 369 0 411 1 q 299 29 329 0 q 269 100 269 58 l 272 875 l 272 881 l 82 881 q 25 904 49 881 q 1 961 1 928 q 25 1017 1 993 q 81 1040 49 1040 l 540 1039 q 578 1029 561 1039 q 606 1004 594 1019 l 767 1004 l 767 1004 z "},"u":{"ha":825,"x_min":1,"x_max":822,"o":"m 794 468 q 822 410 822 444 q 790 251 822 325 q 703 121 758 176 q 573 33 647 65 q 414 1 499 1 q 254 33 329 1 q 124 121 179 65 q 36 251 68 176 q 4 410 4 325 q 13 445 4 429 q 38 472 22 461 l 38 644 q 1 711 1 667 l 3 956 q 26 1012 3 989 q 83 1036 50 1035 q 140 1013 117 1036 q 164 956 164 989 l 161 713 q 151 674 161 692 q 126 646 142 657 l 126 474 q 151 446 142 463 q 160 410 160 429 q 180 310 160 357 q 234 230 200 264 q 315 176 268 196 q 414 156 361 156 q 512 176 465 156 q 592 230 558 196 q 647 310 626 264 q 667 410 667 357 q 674 442 667 428 q 693 468 682 457 l 694 990 q 709 1026 694 1011 q 744 1042 724 1042 q 781 1027 765 1042 q 796 992 796 1013 l 794 468 l 794 468 z "},"v":{"ha":925,"x_min":-8,"x_max":929,"o":"m 888 939 q 920 903 911 928 q 918 854 929 878 l 582 160 l 589 143 q 594 67 608 106 q 540 10 579 28 q 463 6 503 -8 q 406 58 424 21 l 10 897 q 6 974 -8 935 q 58 1031 21 1013 q 136 1035 97 1049 q 193 982 175 1021 l 511 308 l 801 908 q 838 941 813 932 q 888 939 864 950 z "},"w":{"ha":1246,"x_min":-7,"x_max":1251,"o":"m 1204 1038 q 1240 1003 1229 1028 q 1240 956 1251 979 l 975 276 l 1043 125 q 1046 58 1058 93 q 1000 8 1033 24 q 932 6 967 -7 q 882 53 897 19 l 636 590 l 485 258 l 519 176 q 519 105 535 140 q 468 54 504 69 q 396 53 432 39 q 344 104 360 68 l 8 903 q 8 974 -7 939 q 58 1025 22 1010 q 131 1024 94 1039 q 182 975 167 1010 l 438 371 l 586 699 l 543 792 q 540 859 528 825 q 588 908 553 893 q 655 910 621 924 q 704 865 689 897 l 901 438 l 1122 1001 q 1156 1036 1132 1025 q 1204 1038 1181 1047 z "},"x":{"ha":804,"x_min":-4,"x_max":810,"o":"m 786 167 q 800 87 810 129 q 754 21 790 44 q 674 7 717 -3 q 607 53 631 17 l 371 422 l 129 33 q 86 3 114 10 q 33 11 58 -4 q 3 54 10 26 q 11 106 -4 82 l 288 551 l 82 872 q 67 952 58 910 q 114 1018 76 994 q 194 1032 151 1042 q 261 986 238 1022 l 468 663 l 683 1019 q 711 1040 693 1035 q 744 1035 729 1044 q 765 1007 760 1025 q 760 974 769 989 l 522 579 l 786 167 l 786 167 z "},"y":{"ha":764,"x_min":-6,"x_max":765,"o":"m 740 1035 q 760 1007 756 1025 q 756 974 765 989 l 489 532 l 486 117 q 453 35 486 68 q 371 0 419 1 q 288 34 322 0 q 254 117 254 68 l 257 504 q 214 542 228 515 l 11 910 q 4 975 -6 942 q 44 1025 14 1008 q 108 1033 75 1042 q 158 992 142 1024 l 347 649 q 372 653 360 653 q 443 628 411 653 l 679 1019 q 707 1040 689 1035 q 740 1035 725 1044 z "},"z":{"ha":756,"x_min":-7,"x_max":754,"o":"m 674 221 q 731 198 707 221 q 754 142 754 175 q 731 86 754 110 q 675 63 707 63 l 201 63 l 194 53 q 132 4 174 15 q 53 14 90 -7 q 5 77 17 36 q 15 156 -7 118 l 433 876 l 50 876 q 16 891 31 876 q 1 925 1 906 q 15 960 1 946 q 50 975 29 975 l 490 975 l 500 990 q 563 1038 521 1026 q 642 1028 604 1049 q 690 965 679 1006 q 679 888 701 924 l 293 221 l 674 221 l 674 221 z "},".":{"ha":264,"x_min":-1,"x_max":181,"o":"m 89 181 q 154 153 128 181 q 181 89 181 126 q 154 24 181 51 q 89 -3 128 -3 q 25 24 51 -3 q -1 89 -1 51 q 25 153 -1 126 q 89 181 51 181 z "},"‚":{"ha":264,"x_min":0,"x_max":176,"o":"m 86 33 q 33 51 54 31 l 19 68 q 0 115 0 88 q 19 161 0 142 q 66 181 39 181 q 113 161 93 181 l 126 144 q 144 88 151 119 l 165 65 q 176 38 176 54 q 165 10 176 21 q 137 -1 154 -1 q 108 10 119 -1 l 86 33 l 86 33 z "},"(":{"ha":643,"x_min":0,"x_max":642,"o":"m 186 493 q 174 447 186 468 q 143 414 163 426 q 197 286 160 344 q 288 185 235 228 q 408 119 342 143 q 549 94 475 94 q 582 81 568 94 q 596 47 596 67 q 582 14 596 28 q 549 0 568 0 q 372 31 456 0 q 223 118 289 63 q 111 249 157 174 q 47 413 65 325 q 13 445 26 424 q 0 493 0 467 q 43 707 0 607 q 160 881 86 807 q 335 999 235 956 q 549 1042 435 1042 q 615 1015 588 1042 q 642 949 642 988 q 615 883 642 910 q 549 856 588 856 q 408 827 474 856 q 292 749 342 799 q 215 634 243 700 q 186 493 186 568 z "},")":{"ha":643,"x_min":0,"x_max":642,"o":"m 594 631 q 642 549 642 604 q 599 336 642 436 q 481 161 556 236 q 307 43 407 86 q 93 0 207 0 q 27 28 54 0 q 0 94 0 56 q 27 160 0 133 q 93 188 54 188 q 234 216 168 188 q 349 294 300 244 q 427 408 399 343 q 456 549 456 474 q 468 596 456 575 q 500 629 481 617 q 445 756 483 697 q 353 857 407 814 q 233 924 300 900 q 93 949 167 949 q 60 962 74 949 q 47 994 47 975 q 60 1028 47 1014 q 93 1042 74 1042 q 269 1010 186 1042 q 419 924 353 979 q 532 793 486 868 q 594 631 578 718 z "}," ":{"ha":694,"x_min":0,"x_max":0,"o":""},"A":{"ha":881,"x_min":-8,"x_max":874,"o":"m 863 93 q 865 44 874 69 q 832 7 856 18 q 783 5 808 -4 q 747 38 758 14 l 668 203 l 258 203 l 192 60 q 135 8 174 22 q 58 11 96 -7 q 6 68 19 29 q 10 144 -8 107 l 403 983 q 460 1036 421 1022 q 536 1032 499 1050 q 588 975 574 1014 q 585 899 603 936 l 531 783 l 863 93 m 607 329 l 461 635 l 318 329 l 607 329 z "},",":{"ha":264,"x_min":0,"x_max":176,"o":"m 86 33 q 33 51 54 31 l 19 68 q 0 115 0 88 q 19 161 0 142 q 66 181 39 181 q 113 161 93 181 l 126 144 q 144 88 151 119 l 165 65 q 176 38 176 54 q 165 10 176 21 q 137 -1 154 -1 q 108 10 119 -1 l 86 33 l 86 33 z "}}}
